<svg width="171" height="162" viewBox="0 0 171 162" fill="none" xmlns="http://www.w3.org/2000/svg">
<g clip-path="url(#clip0)">
<path fill-rule="evenodd" clip-rule="evenodd" d="M102.532 107.831C104.764 103.487 101.483 100.319 98.072 97.9546C97.1781 97.4022 93.4608 95.2783 93.4411 95.3614C93.7336 94.2447 98.1342 92.2137 99.0767 91.5819C104.595 87.8686 110.109 84.1516 115.616 80.4308C120.971 76.8001 126.847 71.8566 121.586 65.3588C118.98 62.1377 115.573 59.3546 112.741 56.3074C110.685 54.0951 108.234 51.7372 105.182 51.0606C101.718 50.2993 98.7409 52.2384 96.3391 54.5401C92.0921 58.6019 88.422 63.4368 84.5289 67.8327C80.6886 72.1678 76.6494 76.2969 72.6598 80.4955C69.7644 83.5499 66.1713 87.0149 64.6674 91.0644C64.0575 92.461 63.9064 94.0152 64.236 95.5031C64.5656 96.991 65.3588 98.336 66.5015 99.3444C67.8476 100.41 69.4311 101.135 71.1173 101.458C74.2569 102.254 73.3447 102.93 71.0101 104.289C66.6299 106.828 62.0311 109.244 57.8247 112.044C55.6562 113.478 53.036 115.549 53.0729 118.417C53.1352 124.241 62.1235 121.317 65.1826 120.565C73.8298 118.436 82.3922 115.985 91.0394 113.855C95.0812 112.86 100.415 111.95 102.532 107.831ZM57.1477 117.516L57.1421 117.525C56.1356 118.198 57.247 116.884 57.1477 117.516ZM89.8009 109.638C84.6099 110.909 79.3859 112.085 74.2332 113.478C70.2022 114.565 66.2397 115.854 62.1594 116.763C60.9148 117.078 59.6499 117.307 58.3738 117.449C58.26 117.456 58.1075 117.45 57.9411 117.447C58.603 116.964 59.4126 116.279 59.3931 116.29C59.8694 115.941 60.364 115.618 60.8748 115.322C62.6539 114.216 64.5129 113.224 66.3306 112.169C69.4434 110.369 72.7139 108.675 75.7192 106.694C77.4985 105.516 79.2687 103.778 78.7862 101.43C78.2517 98.8902 75.7198 98.0324 73.5253 97.4615C71.073 96.8259 68.2327 96.1224 68.5988 93.0312C68.8077 91.232 70.8258 89.1784 71.9372 87.865C77.7671 80.9272 84.3991 74.6246 90.406 67.8177C93.4025 64.4337 96.2452 60.5971 99.5623 57.5249C103.308 54.0659 105.987 55.6369 109.093 58.8321C110.862 60.6468 112.416 62.6188 114.268 64.3451C116.009 65.9849 119.073 67.8625 119.111 70.406C119.137 72.4474 117.682 73.5543 116.133 74.7303C108.143 80.8311 99.1287 85.5692 91.122 91.6227C85.2289 96.0725 92.2032 99.4812 96.0249 101.844C102.72 106.475 93.6623 108.678 89.8009 109.638ZM84.9676 153.375C84.7279 152.747 84.6796 152.062 84.8291 151.406C84.9787 150.751 85.3192 150.155 85.8076 149.693C86.2961 149.23 86.9106 148.924 87.5734 148.811C88.2362 148.698 88.9175 148.784 89.5313 149.059C90.1451 149.333 90.6639 149.783 91.0219 150.352C91.3799 150.921 91.5612 151.584 91.5428 152.256C91.5244 152.928 91.3071 153.579 90.9184 154.128C90.5298 154.677 89.9873 155.098 89.3594 155.338C88.9421 155.498 88.4975 155.574 88.0509 155.561C87.6043 155.549 87.1646 155.449 86.7568 155.267C86.3489 155.084 85.9809 154.824 85.674 154.499C85.367 154.174 85.127 153.793 84.9676 153.375ZM25.9258 96.7801C25.6225 95.9854 25.5616 95.1186 25.7511 94.2893C25.9405 93.46 26.3716 92.7056 26.9899 92.1214C27.6082 91.5372 28.386 91.1494 29.2247 91.0073C30.0634 90.8652 30.9254 90.9749 31.7016 91.3228C32.4779 91.6707 33.1335 92.2411 33.5856 92.9617C34.0377 93.6822 34.2659 94.5207 34.2413 95.371C34.2168 96.2213 33.9406 97.0451 33.4477 97.7384C32.9548 98.4317 32.2672 98.9633 31.4722 99.2658C30.407 99.6711 29.2245 99.6369 28.1846 99.1708C27.1446 98.7048 26.3322 97.8449 25.9258 96.7801ZM140.264 121.423C139.889 121.981 139.357 122.416 138.735 122.672C138.113 122.927 137.43 122.993 136.77 122.86C136.111 122.727 135.506 122.402 135.032 121.925C134.558 121.448 134.235 120.842 134.106 120.182C133.976 119.522 134.045 118.839 134.304 118.218C134.563 117.597 135 117.067 135.56 116.695C136.121 116.323 136.778 116.125 137.451 116.127C138.123 116.129 138.78 116.33 139.338 116.705C140.087 117.208 140.605 117.987 140.779 118.872C140.952 119.757 140.767 120.675 140.264 121.423ZM108.366 116.882C108.191 116.42 108.156 115.916 108.267 115.435C108.378 114.953 108.629 114.516 108.988 114.177C109.348 113.838 109.8 113.613 110.287 113.531C110.774 113.448 111.275 113.512 111.726 113.714C112.177 113.916 112.558 114.247 112.82 114.666C113.083 115.084 113.216 115.571 113.202 116.065C113.189 116.559 113.029 117.038 112.743 117.441C112.457 117.844 112.059 118.154 111.597 118.33C111.29 118.448 110.963 118.504 110.634 118.495C110.305 118.486 109.981 118.412 109.681 118.277C109.381 118.142 109.11 117.95 108.884 117.711C108.659 117.471 108.482 117.19 108.366 116.882ZM145.643 81.7867C145.403 81.1586 145.355 80.4736 145.505 79.8181C145.654 79.1626 145.995 78.5661 146.483 78.1041C146.972 77.6421 147.586 77.3353 148.249 77.2224C148.912 77.1096 149.593 77.1957 150.207 77.4701C150.821 77.7444 151.339 78.1946 151.697 78.7637C152.055 79.3327 152.237 79.9952 152.218 80.6673C152.2 81.3393 151.983 81.9909 151.594 82.5396C151.205 83.0882 150.663 83.5092 150.035 83.7496C149.618 83.9106 149.173 83.9875 148.726 83.9759C148.279 83.9644 147.839 83.8645 147.431 83.6821C147.022 83.4997 146.654 83.2383 146.348 82.913C146.041 82.5877 145.801 82.2049 145.643 81.7867ZM38.4069 32.6403C38.1035 31.8455 38.0427 30.9787 38.2321 30.1494C38.4215 29.3201 38.8527 28.5656 39.471 27.9814C40.0893 27.3972 40.867 27.0095 41.7057 26.8674C42.5444 26.7253 43.4064 26.835 44.1827 27.1829C44.959 27.5308 45.6146 28.1011 46.0667 28.8216C46.5188 29.5422 46.7469 30.3808 46.7224 31.2311C46.6978 32.0814 46.4216 32.9052 45.9287 33.5985C45.4358 34.2918 44.7484 34.8233 43.9533 35.1258C42.8881 35.5297 41.7061 35.495 40.6665 35.0291C39.6269 34.5632 38.8144 33.7041 38.4069 32.6403ZM91.5521 32.1322C91.2505 31.3375 91.1912 30.4712 91.3817 29.6428C91.5723 28.8144 92.0041 28.061 92.6226 27.4779C93.2411 26.8947 94.0186 26.508 94.8568 26.3665C95.695 26.2251 96.5562 26.3352 97.3319 26.6831C98.1075 27.0309 98.7627 27.6008 99.2146 28.3208C99.6664 29.0408 99.8947 29.8787 99.8706 30.7284C99.8465 31.5781 99.5711 32.4016 99.0792 33.0949C98.5873 33.7881 97.9009 34.3201 97.1068 34.6235C96.5787 34.8261 96.0157 34.9223 95.4502 34.9066C94.8847 34.891 94.3278 34.7638 93.8117 34.5323C93.2955 34.3008 92.8302 33.9696 92.4424 33.5577C92.0546 33.1458 91.7521 32.6614 91.5521 32.1322ZM131.554 43.8887C131.375 43.4257 131.338 42.92 131.447 42.4358C131.556 41.9517 131.806 41.5108 132.166 41.1688C132.526 40.8269 132.979 40.5994 133.468 40.515C133.957 40.4307 134.46 40.4934 134.913 40.6951C135.367 40.8968 135.75 41.2285 136.015 41.6482C136.28 42.0679 136.414 42.5567 136.401 43.0528C136.388 43.5489 136.228 44.03 135.941 44.4351C135.655 44.8403 135.254 45.1512 134.791 45.3287C134.171 45.5649 133.482 45.546 132.875 45.2762C132.269 45.0064 131.794 44.5076 131.554 43.8887Z" fill="#EEC72A"/>
</g>
<defs>
<clipPath id="clip0">
<rect width="135.88" height="122.04" fill="white" transform="translate(43 0.225708) rotate(20.2913)"/>
</clipPath>
</defs>
</svg>
