<svg width="464" height="300" viewBox="0 0 464 300" fill="none" xmlns="http://www.w3.org/2000/svg">
<path d="M8.74094 0.5H455.763C459.906 0.5 463.263 3.85786 463.263 8V292C463.263 296.142 459.906 299.5 455.763 299.5H8.74094C4.5988 299.5 1.24094 296.142 1.24094 292V7.99999C1.24094 3.85786 4.5988 0.5 8.74094 0.5Z" stroke="#0D0D0D"/>
<g clip-path="url(#clip0)">
<path d="M3.31328 0.5H461.191C462.335 0.5 463.263 1.42855 463.263 2.57511V9.80043H1.24094V2.57511C1.24094 1.42855 2.16926 0.5 3.31328 0.5Z" stroke="#0D0D0D"/>
<path d="M41.241 5C41.241 5.82843 40.5694 6.5 39.741 6.5C38.9125 6.5 38.241 5.82843 38.241 5C38.241 4.17157 38.9125 3.5 39.741 3.5C40.5694 3.5 41.241 4.17157 41.241 5Z" stroke="black"/>
<path d="M32.241 5C32.241 5.82843 31.5694 6.5 30.741 6.5C29.9125 6.5 29.241 5.82843 29.241 5C29.241 4.17157 29.9125 3.5 30.741 3.5C31.5694 3.5 32.241 4.17157 32.241 5Z" stroke="black"/>
<path d="M23.2409 5C23.2409 5.82843 22.5694 6.5 21.7409 6.5C20.9125 6.5 20.2409 5.82843 20.2409 5C20.2409 4.17157 20.9125 3.5 21.7409 3.5C22.5694 3.5 23.2409 4.17157 23.2409 5Z" stroke="black"/>
</g>
<defs>
<clipPath id="clip0">
<rect width="463.022" height="10.3004" fill="white" transform="translate(0.740936)"/>
</clipPath>
</defs>
</svg>
